<svg id="regular" enable-background="new 0 0 24 24" height="512" viewBox="0 0 24 24" width="512" xmlns="http://www.w3.org/2000/svg"><path d="m20.087 7.817v-1.197c0-3.65-2.97-6.62-6.619-6.62h-6.849c-3.649 0-6.619 2.97-6.619 6.62v10.76c0 3.65 2.97 6.62 6.619 6.62h10.762c3.649 0 6.619-2.97 6.619-6.62v-6.848c0-2.173-1.732-2.806-3.913-2.715zm2.413 9.563c0 2.823-2.297 5.12-5.119 5.12h-10.762c-2.822 0-5.119-2.297-5.119-5.12v-10.76c0-2.823 2.297-5.12 5.119-5.12h6.849c2.822 0 5.119 2.297 5.119 5.12.172 1.846-.59 2.803 1.353 2.706 1.395-.07 2.561-.039 2.561 1.208v6.846z"/><path d="m8.087 10.304h3.913c2.94 0 2.935-4.435 0-4.435h-3.913c-2.94.001-2.936 4.435 0 4.435zm0-2.934h3.913c.961 0 .962 1.435 0 1.435h-3.913c-.961-.001-.962-1.435 0-1.435z"/><path d="m15.913 13.696h-7.826c-2.931 0-2.936 4.435 0 4.435h7.826c2.931-.001 2.936-4.435 0-4.435zm0 2.934h-7.826c-.95 0-.949-1.435 0-1.435h7.826c.95.001.949 1.435 0 1.435z"/></svg>