<svg id="Capa_1" enable-background="new 0 0 512 512" height="512" viewBox="0 0 512 512" width="512" xmlns="http://www.w3.org/2000/svg"><g><path d="m491.735 313.459c-13.788-9.063-30.78-9.571-44.782-2.396-.069-.121-169.289-298.549-169.359-298.669-9.642-16.512-33.528-16.538-43.186-.001-.088.15-169.274 298.519-169.36 298.67-13.81-7.077-30.818-6.783-44.781 2.395-20.574 13.522-26.438 41.408-13.07 62.164 54.999 85.395 148.01 136.378 248.803 136.378s193.804-50.983 248.804-136.378c13.367-20.755 7.504-48.642-13.069-62.163zm-235.735-278.328 169.183 298.361c-38.907 55.567-101.542 88.508-169.183 88.508s-130.277-32.94-169.183-88.508zm223.582 324.247c-49.452 76.782-133.034 122.622-223.582 122.622s-174.13-45.84-223.582-122.622c-4.493-6.976-2.553-16.329 4.327-20.85 6.782-4.459 15.808-2.506 20.237 4.374 43.998 68.313 118.398 109.098 199.018 109.098s155.02-40.784 199.018-109.099c4.425-6.87 13.443-8.839 20.237-4.373 0 0 .001 0 .001.001 6.879 4.52 8.819 13.873 4.326 20.849z"/><path d="m181.708 367.126c24.813 0 45-20.187 45-45s-20.187-45-45-45-45 20.187-45 45 20.187 45 45 45zm0-60c8.271 0 15 6.729 15 15s-6.729 15-15 15-15-6.729-15-15 6.729-15 15-15z"/><path d="m256 237.856c24.813 0 45-20.187 45-45s-20.187-45-45-45-45 20.187-45 45 20.187 45 45 45zm0-60c8.271 0 15 6.729 15 15s-6.729 15-15 15-15-6.729-15-15 6.729-15 15-15z"/><path d="m297.923 360.869c4.829 6.732 14.201 8.273 20.932 3.445 6.731-4.829 8.274-14.201 3.445-20.932-4.821-6.721-3.276-16.111 3.444-20.933s16.11-3.276 20.932 3.445c4.829 6.73 14.2 8.273 20.932 3.444 6.731-4.829 8.273-14.2 3.444-20.932-14.463-20.162-42.633-24.796-62.795-10.334-20.162 14.466-24.797 42.636-10.334 62.797z"/></g></svg>